<svg version="1.1" id="Layer_1" xmlns="http://www.w3.org/2000/svg" xmlns:xlink="http://www.w3.org/1999/xlink" x="0px" y="0px">


<symbol id="facebook">
<path fill="red" d="M474.4,0.3h-68.6c-2.8,0-5,2.3-5,5V74c0,2.8,2.3,5,5,5h36.9V48.6h-10.3V36.6h10.2
	c0,0,0.2-4.2,0.2-10.6s4.8-10.9,7-12c2.2-1.1,5.6-1.9,9.2-1.8c3.5,0.2,8,0.6,8,0.6l0.2,10.4c0,0-5.6,0.1-7.8,0.2
	c-2.1,0.1-4.4,1.2-4.4,5.1s0,8,0,8h11.9l-1.7,11.9h-10.2V79h19.3c2.8,0,5-2.3,5-5V5.4C479.5,2.6,477.2,0.3,474.4,0.3z"/>
</symbol>	

<symbol id="twitter">
<path fill="#BCBEC0" d="M83.1,24.2c0,0,1.1,25.7-18.4,43.1S19.4,80.6,11.6,77.4S0,71.9,0,71.9s10.1,0.4,16.8-1.6
	s11.4-6.4,11.4-6.4s-5.5,0-10.4-3.4s-7.1-9.4-7.1-9.4s2.2,0,4.5,0s3.5-0.6,3.5-0.6s-5.5-1.5-9.8-5.8S4,32.2,4,32.2s1.8,1,3.7,1.6
	s4.4,0.7,4.4,0.7s-5.4-3.3-7.4-10.9S6.8,9.3,6.8,9.3s8.4,9.5,18.4,14.5s20.1,5,20.1,5s-2.1-12.6,7.7-19.5s18.8-2,21-0.8
	s3.5,3.4,3.5,3.4s2-0.3,5.3-1.5s7.1-3.3,7.1-3.3s-1.6,4-3.3,5.8s-4.9,4.3-4.9,4.3s1.9,0.1,5.4-0.8c3.5-0.9,5.7-1.9,5.7-1.9
	s-1.9,2.9-5,5.8S83.1,24.2,83.1,24.2z"/>

</symbol>	

<symbol id="linkedin" >
<path fill="#BCBEC0" d="M214.6,76c0,3.1-2.6,5.7-5.7,5.7h-66.8c-3.1,0-5.7-2.6-5.7-5.7V8.5c0-3.1,2.6-5.7,5.7-5.7
	h66.8c3.1,0,5.7,2.6,5.7,5.7V76z M163.7,64.3V32h-11v32.4H163.7z M201.3,64.3V42c0-6.8-3.3-10.6-10.2-10.6c-4,0-7.9,1.8-9.7,5.5
	l0-5.1l-10.2,0c0,2.1,0,32.5,0,32.5h11V45.1c0-3,0.9-6.3,4.5-6.3c3.5,0,3.8,3,3.8,5.8v19.7H201.3z M158,15.1c-3.3,0-6,2.7-6,6
	s2.7,6,6,6c3.3,0,6-2.7,6-6S161.3,15.1,158,15.1z"/>

</symbol>	

<symbol id="gplus">
<g>
	<g>
		<path fill-rule="evenodd" clip-rule="evenodd" fill="#BCBEC0" d="M318.9,0c0,0-21.8,0-27.3,0S270,5.2,270,19.2
			s12.2,19.2,17.6,19.5c3.2,0.2,4.2,0,4.5-0.1c0-0.1,0.1-0.2,0.1-0.2s0.1,0.1-0.1,0.2c-0.2,0.8-1.3,4.3-1,6.2
			c0.5,2.7,3.4,5.8,3.4,5.8s-13.1-1.4-22.6,6.2s-9.6,17.8-2.1,22.7c7.5,5,17.1,6.7,27.9,5.4c10.8-1.3,20.9-9,19.5-22.1
			c-1.4-13.1-13.2-12.8-15.2-19.7c-2-7,3.7-8.5,7.4-11.9c3.8-3.4,5.5-10.8,4.1-15.8c-1.3-5.1-3-6.9-4.6-8.5
			c-1.6-1.7-3.4-2.6-3.4-2.6h7.8L318.9,0z M310.5,66.3c-0.3,6-3.4,14.3-16,14.7c-12.5,0.4-20.7-5.1-21-13.4
			c-0.3-8.4,8.4-12.6,14.9-13.8c6.6-1.2,10.9,0.6,10.9,0.6S310.8,60.3,310.5,66.3z M297.5,35.3c-6.8,2.5-14.3-3.4-17.1-12.2
			c-2.8-8.8-0.2-16.4,5.9-18.7s14,2.8,16.6,10.4C305.4,22.4,304.3,32.8,297.5,35.3z M347.8,17.2v-17h-4.1v17.1h-17.1v4h17v17.2h4.4
			V21.5h16.9v-4.3H347.8z"/>
	</g>
</g>
</symbol>

</svg>
